<svg width="40" height="48" viewBox="0 0 40 48" fill="none" xmlns="http://www.w3.org/2000/svg">
<path d="M28.657 0.295895C26.4312 0.552926 23.2812 2.51621 21.7172 4.61621C20.8148 5.81933 20.2843 6.96777 19.825 8.69589L19.5953 9.55996L19.6062 10.4787C19.6172 10.9818 19.6445 11.4521 19.6718 11.5287C19.7429 11.7092 19.8797 11.7365 20.8422 11.742C21.6406 11.7475 21.6898 11.742 22.3734 11.5396C24.2 11.0092 25.5398 10.2107 26.4914 9.07871C26.7211 8.7998 27.0656 8.42793 27.2461 8.24199C27.8476 7.65136 28.6187 6.33886 29.0453 5.20136C29.4718 4.05839 29.6632 2.99746 29.7179 1.48808L29.7507 0.520113L29.6086 0.377926C29.45 0.219332 29.3625 0.213863 28.657 0.295895Z" fill="#717171"/>
<path d="M28.1484 11.5998C27.0656 11.6545 24.1508 12.4639 22.0562 13.2842C20.7875 13.7818 20.7875 13.7818 20.5359 13.8256C20.0984 13.8967 19.0265 13.585 17.1836 12.8412C16.2047 12.4529 15.1984 12.1576 13.7109 11.8185C13.0875 11.6818 12.0539 11.6654 11.6054 11.7912C11.425 11.8404 10.8562 11.9553 10.3422 12.0428C9.23747 12.2396 8.61403 12.431 7.78278 12.8412C5.27263 14.0662 3.56091 15.8271 2.20466 18.5834C1.6031 19.7975 1.16013 20.9842 0.832002 22.2475C0.345283 24.1232 0.334346 27.7217 0.810127 29.9037C0.864814 30.1717 0.914033 30.4889 0.914033 30.6146C0.914033 30.8771 0.963252 31.074 1.42263 32.8842C1.84919 34.5576 1.80544 34.4209 2.62028 36.4662C3.76325 39.3373 4.12419 39.9717 6.45935 43.1928C7.41638 44.5107 7.9031 45.1123 8.60856 45.8287C9.34685 46.5834 9.94294 47.0209 10.7851 47.4365C11.7367 47.9014 12.1523 48.0053 13.0273 47.9998C14.1484 47.9998 15.0508 47.7701 16.7679 47.0482C17.8508 46.5943 17.9218 46.5725 19.8906 46.1678C20.4812 46.042 21.0281 46.0529 21.8593 46.1896C22.1437 46.2334 22.5703 46.299 22.8 46.3318C23.2648 46.3975 23.7351 46.5506 24.9492 47.0373C26.4148 47.6279 27.4484 47.8904 28.5312 47.956C30.1062 48.0545 31.6265 47.3545 33.2508 45.7959C34.9078 44.1935 36.4554 42.0006 38.0195 39.042C38.4406 38.2435 39.1133 36.6084 39.2281 36.1162C39.2773 35.9193 39.3593 35.6732 39.4195 35.5748C39.4742 35.4764 39.5234 35.3396 39.5234 35.2795C39.5234 35.0826 39.1242 34.7709 38.4187 34.4154C37.0898 33.7318 35.7828 32.5615 34.9023 31.2435C34.2734 30.2975 33.639 28.881 33.4804 28.0443C33.2125 26.6662 33.1359 25.1568 33.289 24.1068C33.3273 23.8334 33.464 23.2592 33.5953 22.8217C34.1586 20.924 34.5468 20.1639 35.4273 19.2232C35.6953 18.9443 35.914 18.6873 35.914 18.6654C35.914 18.5725 37.2539 17.4514 37.582 17.2709C37.7625 17.167 37.9922 17.0084 38.0906 16.91C38.3914 16.6146 38.3476 16.4998 37.5929 15.6139C36.5812 14.4271 35.307 13.4537 33.8086 12.7264C32.8734 12.2725 32.2281 12.0482 31.3258 11.8623C30.4015 11.6654 29.0234 11.5506 28.1484 11.5998Z" fill="#717171"/>
</svg>
